<?xml version="1.0" standalone="no"?>
<!DOCTYPE svg PUBLIC "-//W3C//DTD SVG 20010904//EN"
 "http://www.w3.org/TR/2001/REC-SVG-20010904/DTD/svg10.dtd">
<svg version="1.0" xmlns="http://www.w3.org/2000/svg"
 width="454.000000pt" height="626.000000pt" viewBox="0 0 454.000000 626.000000"
 preserveAspectRatio="xMidYMid meet">

<g transform="translate(0.000000,626.000000) scale(0.100000,-0.100000)"
fill="#000000" stroke="none">
<path d="M2048 6245 c-525 -72 -990 -389 -1252 -853 -212 -374 -272 -828 -166
-1249 160 -634 678 -1125 1323 -1253 l57 -11 0 -251 0 -251 -60 7 c-33 4 -116
22 -183 41 -431 118 -852 376 -1222 751 l-120 122 -205 -164 c-113 -90 -206
-168 -208 -173 -5 -15 180 -212 299 -318 325 -289 642 -492 998 -638 188 -77
467 -152 639 -171 l63 -7 -3 -136 -3 -136 -937 -3 -938 -2 0 -270 0 -270 940
0 940 0 0 -500 0 -500 270 0 270 0 0 500 0 500 935 0 935 0 0 270 0 270 -935
0 -935 0 0 139 0 139 83 12 c599 85 1203 415 1760 959 76 74 136 140 135 146
-2 7 -88 93 -193 193 l-190 180 -130 -127 c-433 -423 -884 -691 -1332 -790
-149 -33 -133 -61 -133 227 l0 248 128 32 c317 79 573 223 802 452 137 137
227 261 314 430 248 487 248 1053 0 1540 -87 169 -177 292 -314 430 -228 227
-486 374 -795 450 -205 50 -431 63 -637 35z m372 -535 c257 -34 492 -149 676
-334 297 -296 412 -730 298 -1122 -59 -206 -150 -362 -298 -510 -182 -183
-411 -297 -671 -334 -278 -39 -607 47 -835 219 -82 62 -214 198 -267 276 -165
244 -236 560 -188 838 42 240 141 439 304 610 258 271 621 403 981 357z"/>
<path d="M2209 4920 c-110 -19 -210 -98 -262 -208 -28 -59 -32 -77 -32 -152 0
-75 4 -93 32 -152 73 -155 227 -237 392 -208 85 15 151 51 211 117 64 70 90
140 90 243 0 103 -26 173 -90 243 -58 64 -125 102 -204 116 -66 12 -71 12
-137 1z"/>
</g>
</svg>
